<?xml version="1.0" standalone="no"?>
<!DOCTYPE svg PUBLIC "-//W3C//DTD SVG 20010904//EN"
 "http://www.w3.org/TR/2001/REC-SVG-20010904/DTD/svg10.dtd">
<svg version="1.0" xmlns="http://www.w3.org/2000/svg"
 width="700.000000pt" height="700.000000pt" viewBox="0 0 700.000000 700.000000"
 preserveAspectRatio="xMidYMid meet">
<metadata>
Created by potrace 1.11, written by Peter Selinger 2001-2013
</metadata>
<g transform="translate(0.000000,700.000000) scale(0.100000,-0.100000)"
fill="#000000" stroke="none">
<path d="M3278 6995 c-2 -1 -42 -5 -89 -9 -47 -4 -95 -8 -106 -10 -11 -3 -44
-7 -74 -11 -245 -29 -641 -136 -829 -223 -19 -9 -39 -17 -45 -18 -15 -3 -292
-139 -360 -177 -240 -135 -524 -350 -725 -549 -407 -403 -695 -864 -874 -1400
-31 -94 -79 -267 -91 -329 -3 -13 -11 -58 -20 -99 -29 -147 -36 -199 -52 -370
-10 -108 -10 -511 0 -610 9 -87 12 -109 27 -210 6 -41 13 -86 15 -100 17 -127
142 -565 189 -665 8 -16 24 -55 36 -85 24 -61 119 -253 170 -345 195 -350 475
-689 786 -952 83 -70 91 -76 159 -129 55 -42 234 -164 242 -164 4 0 14 -6 22
-14 42 -37 334 -188 506 -261 239 -102 647 -210 905 -239 247 -29 651 -28 862
0 40 6 263 45 333 59 124 25 369 101 533 166 312 124 688 345 912 535 416 354
692 699 919 1151 130 258 247 592 296 843 32 165 53 306 63 425 14 163 4 687
-13 715 -2 3 -6 30 -9 60 -3 30 -8 64 -10 75 -37 197 -51 259 -82 365 -19 69
-39 139 -43 155 -13 47 -79 220 -124 325 -140 323 -353 657 -585 919 -83 92
-275 280 -367 358 -427 362 -980 631 -1533 748 -96 20 -168 31 -392 61 -46 6
-546 15 -552 9z"/>
</g>
</svg>
