<svg xmlns="http://www.w3.org/2000/svg" xmlns:xlink="http://www.w3.org/1999/xlink" width="176.222" height="38.084" viewBox="0 0 176.222 38.084"><defs><linearGradient id="a" x1="-0.022" y1="1" x2="0" gradientUnits="objectBoundingBox"><stop offset="0" stop-color="#f1c773"/><stop offset="1" stop-color="#f3ce85"/></linearGradient></defs><g transform="translate(-4.958 -4.958)"><path d="M20.042,1A19.042,19.042,0,1,1,1,20.042,19.042,19.042,0,0,1,20.042,1Z" transform="translate(3.958 3.958)" fill="url(#a)"/><path d="M21,13v2H16.5A1.5,1.5,0,0,0,15,16.5v19A1.5,1.5,0,0,0,16.5,37h17A1.5,1.5,0,0,0,35,35.5v-19A1.5,1.5,0,0,0,33.5,15H29V13Z" opacity="0.1"/><rect width="20" height="22" rx="1.5" transform="translate(14 14)" fill="#d1935b"/><rect width="14" height="19" transform="translate(17 14)" fill="#f9f9f9"/><rect width="8" height="4" transform="translate(20 12)" fill="#aaa"/><g transform="translate(47.998 48.997) rotate(180)"><path d="M22,20v4h1.785C25,24,26,23.555,26,22s-1-2-2.216-2Zm-2-2h3.784C26.488,18,28,19.537,28,22c0,2.53-1.563,4-4.215,4H22v5H20Z" fill="#3c3c3c"/></g><path d="M-88.793,0V-16.8h4.852q9.293,0,9.293,8.191a8.072,8.072,0,0,1-2.578,6.252A9.84,9.84,0,0,1-84.141,0Zm2.777-14.437V-2.355h2.227a6.226,6.226,0,0,0,4.576-1.617,6.142,6.142,0,0,0,1.635-4.57q0-5.895-6.105-5.895ZM-66.562.281A5.948,5.948,0,0,1-71-1.4a6.075,6.075,0,0,1-1.658-4.459,6.321,6.321,0,0,1,1.729-4.723,6.356,6.356,0,0,1,4.658-1.7,5.757,5.757,0,0,1,4.383,1.652,6.383,6.383,0,0,1,1.57,4.582,6.289,6.289,0,0,1-1.693,4.6A6.083,6.083,0,0,1-66.562.281Zm.129-10.395A3.1,3.1,0,0,0-68.953-9a4.661,4.661,0,0,0-.926,3.07,4.39,4.39,0,0,0,.938,2.971,3.149,3.149,0,0,0,2.508,1.084,2.988,2.988,0,0,0,2.467-1.066,4.72,4.72,0,0,0,.861-3.035,4.792,4.792,0,0,0-.861-3.059A2.973,2.973,0,0,0-66.434-10.113ZM-48.961-.551a6.7,6.7,0,0,1-3.41.832,5.775,5.775,0,0,1-4.312-1.67,5.916,5.916,0,0,1-1.641-4.33,6.511,6.511,0,0,1,1.764-4.764,6.305,6.305,0,0,1,4.717-1.8,6.885,6.885,0,0,1,2.895.574v2.531a4.384,4.384,0,0,0-2.672-.937,3.713,3.713,0,0,0-2.824,1.166,4.264,4.264,0,0,0-1.1,3.053A4.065,4.065,0,0,0-54.51-2.953a3.682,3.682,0,0,0,2.783,1.078,4.35,4.35,0,0,0,2.766-1.043Zm12.855-4.711h-8.18A3.458,3.458,0,0,0-43.26-2.7a3.815,3.815,0,0,0,2.689.9,5.931,5.931,0,0,0,3.527-1.148V-.75A8.059,8.059,0,0,1-41.379.281a5.368,5.368,0,0,1-4.154-1.635,6.539,6.539,0,0,1-1.506-4.6,6.394,6.394,0,0,1,1.658-4.564,5.424,5.424,0,0,1,4.119-1.764A4.73,4.73,0,0,1-37.453-10.7,6.568,6.568,0,0,1-36.105-6.3ZM-38.73-7.184a3.5,3.5,0,0,0-.691-2.279,2.31,2.31,0,0,0-1.875-.814,2.638,2.638,0,0,0-1.986.855,3.908,3.908,0,0,0-1,2.238ZM-22.828,0h-2.719V-6.762q0-3.363-2.379-3.363a2.6,2.6,0,0,0-2.051.932,3.456,3.456,0,0,0-.809,2.35V0h-2.73V-12h2.73v1.992h.047a4.277,4.277,0,0,1,3.891-2.273,3.623,3.623,0,0,1,2.988,1.271,5.709,5.709,0,0,1,1.031,3.674Zm9.645-.129a4.712,4.712,0,0,1-2.1.4q-3.492,0-3.492-3.352V-9.867h-2V-12h2v-2.777l2.719-.773V-12h2.871v2.133h-2.871v6a2.364,2.364,0,0,0,.387,1.523,1.605,1.605,0,0,0,1.289.457,1.869,1.869,0,0,0,1.2-.4ZM-.82-5.262H-9A3.458,3.458,0,0,0-7.975-2.7a3.815,3.815,0,0,0,2.689.9A5.931,5.931,0,0,0-1.758-2.941V-.75A8.059,8.059,0,0,1-6.094.281a5.368,5.368,0,0,1-4.154-1.635,6.539,6.539,0,0,1-1.506-4.6A6.394,6.394,0,0,1-10.1-10.518a5.424,5.424,0,0,1,4.119-1.764A4.73,4.73,0,0,1-2.168-10.7,6.568,6.568,0,0,1-.82-6.3ZM-3.445-7.184a3.5,3.5,0,0,0-.691-2.279,2.31,2.31,0,0,0-1.875-.814A2.638,2.638,0,0,0-8-9.422,3.908,3.908,0,0,0-9-7.184Z" transform="translate(182 34)"/><path d="M11.508,0H2.074V-16.8h9.059v2.367H4.863V-9.68h5.777v2.355H4.863v4.969h6.645Zm13.02-12L19.887,0H16.945L12.527-12H15.48l2.66,8.391a7.823,7.823,0,0,1,.375,1.617h.035a8.682,8.682,0,0,1,.328-1.57L21.668-12ZM35.18,0H32.543V-1.875H32.5A3.97,3.97,0,0,1,28.852.281,3.839,3.839,0,0,1,26.08-.68a3.361,3.361,0,0,1-1-2.543q0-3.4,3.914-3.961l3.563-.5q0-2.566-2.437-2.566A5.79,5.79,0,0,0,26.25-8.777v-2.379a8.433,8.433,0,0,1,4.383-1.125q4.547,0,4.547,4.477ZM32.555-5.895l-2.52.352a3.994,3.994,0,0,0-1.764.568,1.661,1.661,0,0,0-.592,1.459,1.6,1.6,0,0,0,.545,1.248,2.11,2.11,0,0,0,1.459.486,2.692,2.692,0,0,0,2.057-.873,3.1,3.1,0,0,0,.814-2.2ZM41.227,0H38.5V-17.766h2.73Z" transform="translate(48 34)" fill="#707070"/></g></svg>