<svg xmlns="http://www.w3.org/2000/svg" xmlns:xlink="http://www.w3.org/1999/xlink" width="38.084" height="38.084" viewBox="0 0 38.084 38.084"><defs><linearGradient id="a" x1="-0.022" y1="1" x2="0" gradientUnits="objectBoundingBox"><stop offset="0" stop-color="#f1c773"/><stop offset="1" stop-color="#f3ce85"/></linearGradient></defs><g transform="translate(-4.958 -4.958)"><path d="M20.042,1A19.042,19.042,0,1,1,1,20.042,19.042,19.042,0,0,1,20.042,1Z" transform="translate(3.958 3.958)" fill="url(#a)"/><path d="M21,13v2H16.5A1.5,1.5,0,0,0,15,16.5v19A1.5,1.5,0,0,0,16.5,37h17A1.5,1.5,0,0,0,35,35.5v-19A1.5,1.5,0,0,0,33.5,15H29V13Z" opacity="0.1"/><rect width="20" height="22" rx="1.5" transform="translate(14 14)" fill="#d1935b"/><rect width="14" height="19" transform="translate(17 14)" fill="#f9f9f9"/><rect width="8" height="4" transform="translate(20 12)" fill="#aaa"/><g transform="translate(47.998 48.997) rotate(180)"><path d="M22,20v4h1.785C25,24,26,23.555,26,22s-1-2-2.216-2Zm-2-2h3.784C26.488,18,28,19.537,28,22c0,2.53-1.563,4-4.215,4H22v5H20Z" fill="#3c3c3c"/></g></g></svg>